PathFileType	3	(X/Y/Z)	D:\minhoCalibration\240510\subject3_KPNP\preferred\preferred08.trc
DataRate	CameraRate	NumFrames	NumMarkers	Units	OrigDataRate	OrigDataStartFrame	OrigNumFrames
200.0	200.0	27	10	mm	200.0	208	116	
Frame#	Time	Left_Ankle_Outer1			Left_Ankle_Inner1			Left_Knee_Outer1			Left_Knee_Inner1			Left_Wrist1			Right_Wrist1			Right_Knee_Inner1			Right_Knee_Outer1			Right_Ankle_Inner1			Right_Ankle_Outer1			
		X1	Y1	Z1	X2	Y2	Z2	X3	Y3	Z3	X4	Y4	Z4	X5	Y5	Z5	X6	Y6	Z6	X7	Y7	Z7	X8	Y8	Z8	X9	Y9	Z9	X10	Y10	Z10	
208	1.03	-301.36279	121.95617	-508.87955	-353.28543	142.96579	-490.37183	-136.49254	524.19318	-432.79926	-206.77884	542.82404	-362.25412	-142.15407	889.45441	-687.66632	-322.49261	1125.1432	-468.5618	-241.89322	995.12152	-70.387337	-258.69318	1088.2609	-114.72779	-494.2872	967.86633	281.77209	-513.25269	1067.2378	271.38336
209	1.035	-301.57562	120.3358	-509.84335	-353.56378	141.43739	-491.81134	-137.27846	522.75946	-433.35229	-207.16737	541.32196	-362.23117	-144.30817	886.27655	-686.62415	-321.30887	1126.3636	-471.83658	-243.04562	1001.7606	-73.437744	-260.9856	1092.0131	-119.14905	-444.8378	996.84448	303.45978	-468.14957	1095.4655	294.46481
210	1.04	-301.87628	119.25518	-511.14716	-354.2395	140.08392	-493.18228	-138.00302	521.36932	-434.14114	-207.74428	539.49695	-362.8703	-146.23639	883.64911	-684.58344	-320.8045	1127.7765	-474.53107	-244.37555	1007.881	-75.734917	-264.89282	1095.1462	-122.62183	-391.12354	1024.3062	317.38086	-418.14291	1122.1495	308.40598
211	1.045	-303.46765	117.67248	-512.13428	-355.23904	138.83315	-494.55383	-139.08522	520.04822	-434.86731	-209.47423	537.61743	-363.30908	-147.84338	881.62994	-681.51575	-321.00775	1129.4895	-477.0947	-245.62804	1013.8007	-77.948425	-271.43079	1097.9788	-124.78223	-367.54294	1051.882	325.78448	-378.04788	1150.3665	307.38971
212	1.05	-304.14297	117.3049	-513.44348	-356.72491	137.85858	-495.43063	-140.20099	518.40918	-435.83698	-210.21489	535.30969	-363.99387	-149.28558	880.2038	-677.49304	-322.02286	1130.6722	-479.23972	-245.69283	1018.6653	-80.105888	-278.92767	1103.3322	-126.3756	-357.96649	1065.6689	329.85168	-356.26147	1164.9056	302.4101
213	1.055	-306.64142	115.72658	-514.53992	-358.44107	137.02237	-496.34442	-141.09154	516.91357	-436.64636	-211.75766	533.5451	-364.75778	-150.16022	879.41742	-672.61169	-322.35626	1131.8285	-481.39951	-242.92117	1021.3187	-81.596596	-286.8786	1108.2888	-128.3802	-353.86462	1082.5378	331.53439	-346.41763	1178.6205	296.27533
214	1.06	-308.19971	115.39032	-515.26935	-360.36783	136.2009	-496.75198	-142.11008	515.48157	-436.96295	-212.65271	532.17877	-363.29214	-150.5612	878.68951	-667.0307	-322.62378	1131.8781	-482.11877	-238.26701	1023.2794	-82.061584	-294.16852	1111.6581	-130.30461	-350.28677	1085.2094	322.74054	-343.54617	1185.2784	294.7294
215	1.065	-310.23447	115.08031	-515.54938	-362.31583	135.76437	-497.04672	-143.09894	514.18073	-436.8035	-213.56877	530.18781	-363.18954	-149.93634	878.18689	-661.05945	-326.4176	1130.8175	-481.7392	-233.49252	1027.0159	-82.285469	-299.70996	1115.1777	-132.50552	-349.14429	1080.1597	317.70135	-345.68384	1182.3955	297.56311
216	1.07	-311.84723	115.2328	-515.64886	-364.28979	135.53343	-497.01389	-144.59007	513.12268	-435.93048	-214.74951	529.15027	-361.69901	-148.49588	877.90094	-654.78625	-330.30524	1129.4459	-481.93875	-230.40695	1032.374	-83.7686	-299.37271	1120.0966	-134.21007	-348.37238	1075.1799	318.31335	-350.30524	1175.568	298.45978
217	1.075	-313.76224	114.85014	-515.67773	-365.91629	135.336	-497.0882	-146.27834	512.46185	-434.5553	-216.18892	528.15417	-360.0119	-146.50053	877.59778	-648.53772	-334.22092	1128.6748	-481.09506	-228.78639	1037.7019	-86.172478	-292.45477	1124.8761	-133.01328	-344.56323	1069.5031	318.11826	-354.78607	1169.8989	299.13663
218	1.08	-314.97287	115.36633	-515.13641	-367.22791	135.38129	-497.01703	-148.23064	512.11865	-432.42218	-217.88744	527.72119	-358.18787	-144.53165	877.45911	-642.63116	-338.10641	1127.5885	-480.80521	-228.50484	1041.9635	-88.74054	-282.61246	1126.2075	-131.30313	-340.008	1062.9786	315.58127	-358.70798	1162.9962	298.20135
219	1.085	-315.50916	115.88601	-514.84778	-368.19003	135.28497	-496.98935	-150.10448	512.16077	-429.74854	-219.78029	527.40875	-357.56284	-142.38412	877.62067	-637.45813	-342.04971	1126.4685	-480.4342	-229.53815	1044.7854	-91.005661	-273.77753	1124.355	-131.58287	-334.56104	1057.7887	313.2843	-361.8764	1154.9211	297.64905
220	1.09	-316.28809	115.99734	-514.42548	-368.56094	134.75763	-496.73325	-152.17139	512.5965	-426.48248	-222.91292	528.29901	-355.37564	-140.32141	877.82245	-633.19788	-345.56049	1125.7057	-480.79263	-231.99559	1045.2178	-92.351219	-270.06696	1122.892	-135.78812	-330.30261	1052.3583	312.67047	-362.47989	1147.2599	298.25677
221	1.095	-316.0416	116.13817	-514.2749	-369.12378	134.96176	-497.32938	-154.20538	513.15955	-423.22208	-226.39017	529.0116	-355.33923	-137.83337	878.34509	-630.06421	-349.90479	1124.2141	-480.04083	-235.37308	1043.3204	-93.00248	-271.89389	1119.0067	-140.8082	-328.53683	1046.2191	311.49713	-362.48096	1141.103	299.09402
222	1.1	-315.82178	116.39836	-514.04395	-369.06137	134.84477	-497.57373	-156.12541	514.17914	-420.0827	-230.75641	530.56812	-354.25186	-134.6468	879.23932	-627.8869	-354.17365	1123.1848	-479.4473	-239.09242	1040.0281	-93.900146	-277.52048	1115.5916	-143.57144	-325.72696	1041.4792	311.31195	-362.73483	1135.9698	299.36972
223	1.105	-315.87018	116.28905	-513.41888	-368.7316	134.9203	-497.82031	-157.79189	515.38916	-417.21167	-235.18933	531.53607	-354.27802	-131.55579	880.22363	-625.6521	-358.17029	1121.9968	-479.0831	-242.71315	1036.3304	-95.302689	-286.03	1113.3511	-143.92088	-322.4715	1035.193	311.5444	-363.88385	1128.9124	299.59631
224	1.11	-316.0004	115.79695	-512.40656	-367.94183	134.93707	-498.10867	-159.13574	516.74884	-414.71396	-238.98586	532.5163	-354.12662	-127.93713	881.995	-623.17651	-362.16919	1120.9132	-478.87149	-246.10028	1032.5842	-97.025497	-295.9075	1111.368	-142.26505	-319.32193	1028.7761	312.93805	-365.75766	1119.703	300.31689
225	1.115	-313.47693	116.94557	-512.62134	-366.95816	135.15878	-498.33084	-160.62521	518.14935	-412.36276	-243.16058	533.57306	-355.4339	-124.79005	883.85138	-620.04004	-366.23001	1119.8163	-478.49884	-249.82193	1028.7607	-98.686157	-306.00864	1107.0009	-140.03448	-315.90436	1021.5089	314.33551	-368.00043	1108.8379	300.71704
226	1.12	-312.7634	116.84451	-511.84863	-365.71045	135.375	-498.47726	-161.94516	519.63733	-410.30145	-246.30521	534.63733	-356.75916	-121.16955	886.36163	-616.86951	-370.32016	1118.8937	-478.22803	-253.65508	1024.7662	-100.12006	-316.28152	1100.939	-137.40993	-313.03531	1013.3264	315.85278	-371.32104	1096.255	301.44016
227	1.125	-311.54532	116.99529	-511.09671	-364.25327	135.65784	-498.67157	-162.43279	520.95709	-409.1304	-249.09515	535.80035	-357.98724	-117.76752	889.02136	-613.46729	-373.00671	1117.5433	-477.22696	-257.5618	1020.5392	-101.47254	-325.56033	1093.9352	-135.49657	-308.75467	1004.298	313.95227	-374.74335	1082.0588	302.70352
228	1.13	-309.70856	117.49351	-510.59174	-362.67422	135.90277	-498.85922	-163.30431	522.40021	-407.96707	-251.54526	537.02069	-359.1134	-114.72358	892.12109	-609.87653	-379.0798	1116.1219	-478.13074	-261.47327	1016.0591	-102.49537	-335.30252	1085.9779	-134.35077	-303.13684	994.88666	315.91379	-378.06076	1065.6368	303.4249
229	1.135	-307.42972	118.04066	-510.29379	-361.07443	136.25888	-499.0235	-164.48503	523.98492	-406.9205	-253.43802	538.38416	-360.36438	-111.72338	895.4455	-606.31903	-383.82538	1113.8732	-478.75391	-265.47131	1011.4651	-103.31211	-345.49249	1077.7549	-134.1257	-298.99353	978.57233	294.88947	-381.32834	1048.0476	303.9581
230	1.14	-305.90741	118.28362	-509.54062	-359.26627	136.52802	-499.15546	-165.06212	525.61182	-406.46558	-254.98268	539.94257	-361.40466	-108.87775	898.99243	-602.86816	-387.83963	1111.9995	-478.68774	-269.47974	1006.681	-103.92255	-355.04245	1069.9154	-134.59988	-297.37408	966.70386	293.37506	-384.8591	1029.6752	303.97354
231	1.145	-303.63306	118.76878	-509.1496	-357.39056	136.87315	-499.5144	-165.02983	527.39948	-406.43057	-256.50052	541.38312	-362.64612	-106.52836	902.75043	-599.34521	-391.86386	1109.3005	-480.01627	-273.4873	1002.0867	-104.21877	-363.79269	1062.5461	-134.97194	-296.59219	954.02985	291.38379	-388.24469	1010.7211	302.80408
232	1.15	-301.51663	119.25388	-508.82532	-355.58871	137.09586	-499.74429	-165.67941	529.06213	-406.13583	-257.63791	542.82697	-363.11514	-104.10232	906.6673	-596.07147	-396.5506	1107.3262	-481.44839	-277.10333	997.94263	-104.44315	-370.79648	1055.1024	-134.94334	-298.27667	942.25824	293.95746	-392.31738	990.87982	301.04797
233	1.155	-299.52542	119.32367	-508.42841	-353.65778	137.26111	-500.01852	-165.87556	530.758	-406.15619	-257.57672	544.11267	-364.43866	-101.97633	910.60553	-592.86047	-400.88449	1104.0829	-483.18524	-280.30331	993.92688	-104.8777	-376.77667	1047.6488	-133.98782	-301.94922	929.47522	306.97488	-397.18298	970.25775	299.28015
234	1.16	-297.60013	119.25716	-508.02808	-351.53653	136.96156	-500.84006	-165.68381	532.38275	-406.44498	-258.28577	545.28754	-365.38885	-99.95504	914.64563	-589.7962	-404.49741	1101.3893	-484.49518	-282.94516	989.86877	-105.71873	-380.53958	1039.6956	-132.8179	-304.75562	909.35107	296.31509	-402.51538	948.90204	296.78763
